<?xml version="1.0" standalone="no"?>
<!DOCTYPE svg PUBLIC "-//W3C//DTD SVG 20010904//EN"
 "http://www.w3.org/TR/2001/REC-SVG-20010904/DTD/svg10.dtd">
<svg version="1.0" xmlns="http://www.w3.org/2000/svg"
 width="16.000000pt" height="16.000000pt" viewBox="0 0 16.000000 16.000000"
 preserveAspectRatio="xMidYMid meet">
<metadata>
Created by potrace 1.11, written by Peter Selinger 2001-2013
</metadata>
<g transform="translate(0.000000,16.000000) scale(0.002484,-0.002484)"
fill="#000000" stroke="none">
<path d="M4035 6424 c-174 -39 -268 -125 -311 -287 -49 -183 -15 -564 82 -937
226 -861 683 -1703 1094 -2014 138 -104 300 -158 401 -132 96 25 195 103 305
240 298 372 579 1014 713 1631 52 241 72 404 78 626 5 179 3 213 -12 260 -83
256 -375 433 -890 538 -297 60 -546 82 -1000 87 -328 3 -401 1 -460 -12z m790
-44 c531 -38 888 -111 1154 -236 172 -81 277 -173 335 -294 29 -61 31 -73 35
-200 17 -665 -320 -1703 -735 -2260 -96 -129 -200 -232 -270 -266 -46 -23 -63
-26 -121 -22 -127 8 -248 75 -402 223 -114 110 -197 211 -306 375 -490 737
-851 1905 -744 2410 32 152 117 231 287 265 83 16 564 19 767 5z"/>
<path d="M2690 6338 c-1105 -153 -2061 -494 -2445 -872 -94 -93 -140 -174
-177 -316 -21 -78 -23 -106 -22 -340 0 -229 3 -272 28 -425 146 -897 591
-2048 1153 -2984 475 -791 956 -1279 1364 -1386 92 -24 268 -17 359 14 416
143 958 635 1500 1361 135 181 442 639 435 650 -2 3 -44 -4 -92 -16 -123 -32
-264 -32 -353 -1 -104 37 -204 109 -345 251 -138 139 -249 278 -388 491 -402
617 -828 1604 -1017 2361 -74 297 -94 435 -93 644 0 156 4 197 21 263 30 109
75 188 144 252 32 30 58 56 58 59 0 8 -50 5 -130 -6z m-50 -120 c-193 -298
-100 -975 267 -1938 463 -1217 1058 -2128 1501 -2301 66 -26 249 -38 326 -21
25 5 46 7 46 4 0 -10 -230 -349 -330 -487 -393 -538 -834 -994 -1190 -1230
-321 -212 -547 -247 -807 -126 -187 88 -415 278 -629 526 -795 920 -1604 2772
-1725 3952 -17 163 -7 436 20 540 32 126 73 204 149 281 333 336 1167 659
2122 821 189 33 221 37 262 40 l28 1 -40 -62z"/>
</g>
</svg>
